<?xml version="1.0" encoding="utf-8"?>
<!-- Generator: Adobe Illustrator 26.3.1, SVG Export Plug-In . SVG Version: 6.00 Build 0)  -->
<svg version="1.1" id="Powered_by_SurrealDB" xmlns="http://www.w3.org/2000/svg" xmlns:xlink="http://www.w3.org/1999/xlink"
	 x="0px" y="0px" viewBox="0 0 4561.3 1284.3" style="enable-background:new 0 0 4561.3 1284.3;" xml:space="preserve">
<style type="text/css">
	.st0{fill:#6A7389;}
	.st1{fill:url(#DB_00000121245882787456324860000011995222962589377452_);}
	.st2{fill:#FFFFFF;}
	.st3{fill:url(#Icon_00000032643581924871122010000018391993384948968841_);}
</style>
<g id="Powered_by">
	<path class="st0" d="M118.8,85.4c-4.3,8.7-11.1,16.1-20.4,21c-9.3,5.6-21.7,8-36.5,8H29.1V193H0V0h61.9c13.6,0,25.4,2.5,34.6,7.4
		s16.7,11.8,21.7,20.4s6.8,18.6,6.8,29.1S123.1,76.7,118.8,85.4z M86.6,80.4c5.6-5.6,8-13,8-22.9c0-21-11.1-31.6-33.4-31.6H29.1V89
		h32.8C73,89.1,81,86,86.6,80.4z"/>
	<path class="st0" d="M178.8,183.7c-11.1-6.2-19.2-14.8-25.4-26c-6.2-11.1-9.3-24.1-9.3-38.4s3.1-27.2,9.3-38.4s14.8-19.8,26-26
		c11.1-6.2,23.5-9.3,37.1-9.3s26,3.1,37.1,9.3s19.8,14.8,26,26s9.3,24.1,9.3,38.4s-3.1,27.2-9.9,38.4c-6.8,11.1-15.5,19.8-26.6,26
		s-23.5,9.3-37.1,9.3C201.7,193,189.3,189.9,178.8,183.7z M236.3,162.1c6.8-3.7,11.8-9.3,16.1-16.1c4.3-7.4,6.2-16.1,6.2-26
		c0-10.5-1.9-19.2-6.2-26s-9.3-12.4-15.5-16.1c-6.8-3.7-13.6-5.6-21-5.6s-14.8,1.9-21,5.6s-11.8,9.3-15.5,16.1
		c-3.7,7.4-5.6,16.1-5.6,26c0,15.5,3.7,27.2,11.8,35.3c8,8,17.9,12.4,29.7,12.4C222.1,167.6,229.5,165.8,236.3,162.1z"/>
	<path class="st0" d="M508.5,46.4L464,193h-31L404.6,84.8L376.1,193h-30.9L300.7,46.4h29.7L360,163.9l30.3-117.5h30.9l29.1,117.5
		l29.1-117.5C479.4,46.4,508.5,46.4,508.5,46.4z"/>
	<path class="st0" d="M659.5,130.5H550.6c0.6,11.1,4.9,20.4,12.4,27.2c7.4,6.8,16.7,10.5,27.8,10.5c16.1,0,27.2-6.8,33.4-19.8h31.6
		c-4.3,13-12.4,23.5-23.5,32.2c-11.1,8-25.4,12.4-42.1,12.4c-13.6,0-26-3.1-36.5-9.3s-19.2-14.8-25.4-26
		c-6.2-11.1-9.3-24.1-9.3-38.4c0-14.8,3.1-27.2,8.7-38.4c6.2-11.1,14.2-19.8,24.7-25.4c10.5-6.2,22.9-9.3,37.1-9.3
		c13.6,0,25.4,3.1,35.9,8.7s18.6,14.2,24.7,24.7s8.7,22.9,8.7,36.5C660.1,121.3,660.1,126.2,659.5,130.5z M629.8,107
		c0-10.5-4.3-19.8-11.8-26c-7.4-6.8-16.7-9.9-27.8-9.9c-9.9,0-18.6,3.1-26,9.9c-7.4,6.2-11.8,14.8-13,26H629.8z"/>
	<path class="st0" d="M916.8,130.5H808.5c0.6,11.1,4.9,20.4,12.4,27.2s16.7,10.5,27.8,10.5c16.1,0,27.2-6.8,33.4-19.8h31.6
		c-4.3,13-12.4,23.5-23.5,32.2c-11.1,8-25.4,12.4-42.1,12.4c-13.6,0-26-3.1-36.5-9.3s-19.2-14.8-25.4-26
		c-6.2-11.1-9.3-24.1-9.3-38.4c0-14.8,3.1-27.2,8.7-38.4c6.2-11.1,14.2-19.8,24.7-25.4c10.5-6.2,22.9-9.3,37.1-9.3
		c13.6,0,25.4,3.1,35.9,8.7s18.6,14.2,24.7,24.7s8.7,22.9,8.7,36.5C918,121.3,917.4,126.2,916.8,130.5z M887.1,107
		c0-10.5-4.3-19.8-11.8-26c-7.4-6.8-16.7-9.9-27.8-9.9c-9.9,0-18.6,3.1-26,9.9c-7.4,6.2-11.8,14.8-13,26H887.1z"/>
	<path class="st0" d="M1490.9,46.4l-87.2,219h-30.3l29.1-72.4l-55.7-146.6h32.8l40.2,113.2l41.4-113.2
		C1461.2,46.4,1490.9,46.4,1490.9,46.4z"/>
	<path class="st0" d="M1325.1,81c-5.6-11.1-13.6-19.8-24.1-25.4c-9.9-6.2-21.7-9.3-34-9.3c-10.5,0-20.4,2.5-29.1,6.8
		s-15.5,9.9-20.4,16.7V0h-29.1v179.4v11.1v2.5h29.1v-2.5v-11.1v-9.9c4.9,6.8,11.8,12.4,20.4,16.7c8.7,4.3,17.9,6.2,29.1,6.2
		c12.4,0,23.5-3.1,34-9.3s17.9-14.8,24.1-26c5.6-11.1,8.7-24.1,8.7-38.4S1331.3,92.2,1325.1,81z M1297.9,144.8
		c-4.3,7.4-9.3,13-16.1,16.7c-6.8,3.7-13.6,5.6-21,5.6s-14.2-1.9-21-5.6c-6.8-3.7-11.8-9.3-16.1-16.7c-4.3-7.4-6.2-16.1-6.2-25.4
		s1.9-18.6,6.2-25.4c4.3-7.4,9.3-13,16.1-16.7c6.8-3.7,13.6-5.6,21-5.6s14.8,1.9,21,5.6c6.8,3.7,11.8,9.3,16.1,16.1
		c4.3,7.4,6.2,15.5,6.2,25.4S1302.2,137.3,1297.9,144.8z"/>
	<path class="st0" d="M1053.5,0v68.7c-5.6-6.8-12.4-12.4-21.7-16.1c-9.3-3.7-17.9-6.2-27.2-6.2c-12.4,0-24.1,3.1-34,9.3
		c-10.5,6.2-18.6,14.8-24.1,25.4c-6.2,11.1-8.7,23.5-8.7,37.7s3.1,27.2,8.7,38.4c6.2,11.1,14.2,19.8,24.1,26
		c10.5,6.2,21.7,9.3,34,9.3c11.1,0,21-2.5,29.1-6.8c8-4.3,14.8-9.9,19.8-16.7v10.5v11.1v2.5h29.7v-2.5v-11.1V0H1053.5z
		 M1047.3,145.4c-4.3,7.4-9.3,13-16.1,16.7s-13.6,5.6-21,5.6s-14.2-1.9-21-5.6c-6.8-3.7-11.8-9.3-16.1-16.7s-6.2-16.1-6.2-26
		s1.9-17.9,6.2-25.4c4.3-7.4,9.3-12.4,16.1-16.1s13.6-5.6,21-5.6s14.8,1.9,21,5.6c6.8,3.7,11.8,9.3,16.1,16.7
		c4.3,7.4,6.2,15.5,6.2,25.4S1051,138,1047.3,145.4z"/>
	<path class="st0" d="M735.5,52.6c-7.4,4.3-13,9.9-17.3,17.3V50.7v-1.9v-2.5h-29.1v2.5v1.9V193h29.1v-76.1c0-14.8,3.1-24.7,8.7-30.9
		c6.2-6.2,14.8-8.7,26-8.7h7.4V46.4C751,46.4,742.4,48.3,735.5,52.6z"/>
</g>
<g>
	
		<linearGradient id="DB_00000054950051093667731880000007977407630607202238_" gradientUnits="userSpaceOnUse" x1="3829.7144" y1="-736.7432" x2="4266.2515" y2="-1492.8479" gradientTransform="matrix(1 0 0 -1 0 -324.3781)">
		<stop  offset="0" style="stop-color:#FF00A0"/>
		<stop  offset="1" style="stop-color:#9600FF"/>
	</linearGradient>
	<path id="DB" style="fill:url(#DB_00000054950051093667731880000007977407630607202238_);" d="M4490.4,776.2
		c84.5-64.2,39.3-205.8-52.4-238c-20.2-8.3-41.6-11.9-64.2-11.9h-221.3v536.6c13.1,0,251,0,251,0c42.8,0,83.3-15.5,113-44
		C4583.3,954.7,4576.1,823.8,4490.4,776.2z M4259.6,634.6h110.6c28.6,0,52.3,20.2,51.2,50c1.2,28.6-22.6,52.4-51.2,51.2h-110.6
		V634.6z M4397.6,955.9h-138V839.3h138c28.6-1.2,52.4,30.9,51.2,59.5C4450,926.1,4426.2,957.1,4397.6,955.9z M3942.7,546.6
		c-33.3-13.1-70.2-20.2-110.6-20.2h-199.9V1063h199.9c42.8,0,80.9-7.1,114.2-20.2c102.3-39.3,159.4-140.4,158.2-248.7
		C4105.7,685.8,4045,585.8,3942.7,546.6z M3990.3,795.2c1.1,84.5-69.1,161.9-154.7,160.7H3738V634.6h97.6
		C3921.3,633.4,3991.5,711.9,3990.3,795.2z"/>
	<path id="l_00000025403636360595826800000011768100850424527237_" class="st2" d="M3477.1,526.3v536.6h107.1V526.3H3477.1z"/>
	<path class="st2" d="M3429.1,857c0-115.9-94-209.9-209.9-209.9s-209.9,94-209.9,209.9s94,209.9,209.9,209.9
		c37.3,0,72.4-9.8,102.8-26.9v22.8h107.1L3429.1,857C3429.1,857.1,3429.1,857.1,3429.1,857z M3219.2,959.8
		c-56.8,0-102.8-46-102.8-102.8s46-102.8,102.8-102.8S3322,800.2,3322,857S3276,959.8,3219.2,959.8z"/>
	<path class="st2" d="M2751.4,959.8c-43.3,0-80.4-26.8-95.5-64.7h301.9c2.3-12.3,3.4-25.1,3.4-38c0-115.9-94-209.9-209.9-209.9
		s-209.9,94-209.9,209.9s94,209.9,209.9,209.9c92.3,0,170.7-59.6,198.8-142.3h-121.3C2810,946.2,2782.3,959.8,2751.4,959.8z
		 M2751.4,754.3c43.3,0,80.4,26.8,95.5,64.7h-191C2671,781.1,2708.1,754.3,2751.4,754.3z"/>
	<path class="st2" d="M2307.4,856.9v205.7h106.9V856.9c0-56.8,46.1-102.9,102.9-102.9V647C2401.3,647,2307.4,741,2307.4,856.9z"/>
	<path class="st2" d="M2073.5,856.9v205.7h106.9V856.9c0-56.8,46.1-102.9,102.9-102.9V647C2167.4,647,2073.5,741,2073.5,856.9z"/>
	<path class="st2" d="M1918.6,651.2v206.1c-5.9,141.6-199.9,141.6-204.6,0V743.6v-92.5h-107.1v92.5v113.6c0,21.4,3.6,42.8,9.5,63.1
		c27.4,86.9,108.3,146.3,199.9,146.3s172.5-59.4,199.9-146.2c5.9-20.2,9.5-41.6,9.5-63.1V743.6v-92.5L1918.6,651.2L1918.6,651.2z"/>
	<path id="S_00000169540344908778767970000011130257505604909976_" class="st2" d="M1411.9,748.6c-45.1-7.2-98.6-15.6-134.2-44.5
		c-22.6-18.2-13.1-47,10.7-62.8c46.3-30.3,123.4-13.3,138.9,42.1h121.1c0-98.9-104.5-162.9-201.9-161.7
		c-54.7,0-105.7,13.3-144.9,45.8c-47.4,38.6-71.1,112.2-41.5,166.6c48.7,80.8,166.3,79.6,245.8,112.1c21.4,10.9,34.5,23,34.5,45.8
		c0,49.5-43.9,70-93.8,70c-47.4,1.2-83-35-87.8-79.6H1140c3.6,175,232.7,237.8,362.1,133.9c36.8-31.4,57-76,57-124.2
		C1560.2,813.7,1486.7,760.6,1411.9,748.6z"/>
	
		<linearGradient id="Icon_00000142886882826608901030000000438084944562257811_" gradientUnits="userSpaceOnUse" x1="203.3477" y1="1062.7192" x2="636.6956" y2="1813.2999" gradientTransform="matrix(1 0 0 1 0 -643.6221)">
		<stop  offset="0" style="stop-color:#FF00A0"/>
		<stop  offset="1" style="stop-color:#9600FF"/>
	</linearGradient>
	<path id="Icon" style="fill:url(#Icon_00000142886882826608901030000000438084944562257811_);" d="M420,562.2l233.3,129.2v-51.8
		L420,510.7c-34.7,19.2-202.4,111.9-233.3,128.9C215.4,655.5,516.8,822,700,923.2v51.6c-24.9,13.8-280,154.7-280,154.7
		c-69.8-38.5-210.3-116.1-280-154.7V820.1l280,154.7l46.7-25.8L93.3,742.8v257.9L420,1181.1c32.2-17.8,302.8-167.3,326.6-180.5
		V897.5L280,639.6L420,562.2z M93.3,588v103.2l466.6,257.9l-140,77.4L186.6,897.3v51.8L419.9,1078
		c34.7-19.2,202.4-111.9,233.3-128.9c-28.7-15.9-330-182.4-513.2-283.7v-51.6c24.9-13.8,280-154.7,280-154.7
		c69.7,38.6,210.2,116.2,280,154.7v154.7L420,613.8l-46.7,25.8l373.3,206.3V588L420,407.5C387.7,425.4,117.2,574.9,93.3,588z
		 M420,304.4L0,536.5v515.7l420,232.1l420-232V536.5L420,304.4z M793.2,1026.4L420,1232.7L46.7,1026.4V562.3L420,356l373.3,206.3
		L793.2,1026.4z"/>
</g>
</svg>
