<svg width="85" height="35" viewBox="0 0 85 35" fill="none" xmlns="http://www.w3.org/2000/svg">
<path d="M24.514 16.76C24.514 18.528 24.208 20.16 23.596 21.656C23.0067 23.152 22.1567 24.444 21.046 25.532C19.9353 26.62 18.5753 27.47 16.966 28.082C15.3793 28.694 13.5773 29 11.56 29H1.7V4.52H11.56C13.4867 4.52 15.2433 4.826 16.83 5.438C18.4167 6.05 19.7767 6.9 20.91 7.988C22.066 9.076 22.95 10.368 23.562 11.864C24.1967 13.36 24.514 14.992 24.514 16.76ZM11.764 24.104C12.784 24.104 13.736 23.9113 14.62 23.526C15.504 23.1407 16.2747 22.6193 16.932 21.962C17.612 21.282 18.1447 20.5 18.53 19.616C18.9153 18.732 19.108 17.78 19.108 16.76C19.108 15.74 18.9153 14.788 18.53 13.904C18.1447 13.02 17.612 12.2493 16.932 11.592C16.2747 10.912 15.504 10.3793 14.62 9.994C13.736 9.60867 12.784 9.416 11.764 9.416H7.14V24.104H11.764ZM46.1452 19.82C46.1452 21.1573 45.8732 22.4153 45.3292 23.594C44.8078 24.7727 44.0825 25.804 43.1532 26.688C42.2465 27.572 41.1812 28.2747 39.9572 28.796C38.7332 29.2947 37.4185 29.544 36.0132 29.544C34.6078 29.544 33.2932 29.2947 32.0692 28.796C30.8452 28.2747 29.7685 27.572 28.8392 26.688C27.9325 25.804 27.2072 24.7727 26.6632 23.594C26.1418 22.4153 25.8812 21.1573 25.8812 19.82C25.8812 18.4827 26.1418 17.2247 26.6632 16.046C27.2072 14.8673 27.9325 13.836 28.8392 12.952C29.7685 12.068 30.8452 11.3767 32.0692 10.878C33.2932 10.3567 34.6078 10.096 36.0132 10.096C37.4185 10.096 38.7332 10.3567 39.9572 10.878C41.1812 11.3767 42.2465 12.068 43.1532 12.952C44.0825 13.836 44.8078 14.8673 45.3292 16.046C45.8732 17.2247 46.1452 18.4827 46.1452 19.82ZM41.0452 19.82C41.0452 19.1173 40.9092 18.46 40.6372 17.848C40.3878 17.2133 40.0365 16.6693 39.5832 16.216C39.1298 15.7627 38.5972 15.4 37.9852 15.128C37.3732 14.856 36.7158 14.72 36.0132 14.72C35.3105 14.72 34.6532 14.856 34.0412 15.128C33.4292 15.4 32.8965 15.7627 32.4432 16.216C31.9898 16.6693 31.6272 17.2133 31.3552 17.848C31.1058 18.46 30.9812 19.1173 30.9812 19.82C30.9812 20.5227 31.1058 21.1913 31.3552 21.826C31.6272 22.438 31.9898 22.9707 32.4432 23.424C32.8965 23.8773 33.4292 24.24 34.0412 24.512C34.6532 24.784 35.3105 24.92 36.0132 24.92C36.7158 24.92 37.3732 24.784 37.9852 24.512C38.5972 24.24 39.1298 23.8773 39.5832 23.424C40.0365 22.9707 40.3878 22.438 40.6372 21.826C40.9092 21.1913 41.0452 20.5227 41.0452 19.82ZM57.6964 14.72C56.9937 14.72 56.3251 14.856 55.6904 15.128C55.0784 15.4 54.5457 15.7627 54.0924 16.216C53.6391 16.6693 53.2764 17.2133 53.0044 17.848C52.7324 18.46 52.5964 19.1173 52.5964 19.82C52.5964 20.5227 52.7324 21.1913 53.0044 21.826C53.2764 22.438 53.6391 22.9707 54.0924 23.424C54.5457 23.8773 55.0784 24.24 55.6904 24.512C56.3251 24.784 56.9937 24.92 57.6964 24.92C58.6484 24.92 59.4984 24.682 60.2464 24.206C61.0171 23.73 61.6177 23.1067 62.0484 22.336H67.5224C67.2277 23.3787 66.7744 24.342 66.1624 25.226C65.5504 26.0873 64.8137 26.8467 63.9524 27.504C63.0911 28.1387 62.1277 28.6373 61.0624 29C59.9971 29.3627 58.8751 29.544 57.6964 29.544C56.2911 29.544 54.9651 29.2947 53.7184 28.796C52.4717 28.2747 51.3837 27.572 50.4544 26.688C49.5477 25.804 48.8224 24.7727 48.2784 23.594C47.7571 22.4153 47.4964 21.1573 47.4964 19.82C47.4964 18.4827 47.7571 17.2247 48.2784 16.046C48.8224 14.8673 49.5477 13.836 50.4544 12.952C51.3837 12.068 52.4717 11.3767 53.7184 10.878C54.9651 10.3567 56.2911 10.096 57.6964 10.096C58.8977 10.096 60.0311 10.2887 61.0964 10.674C62.1617 11.0367 63.1251 11.5467 63.9864 12.204C64.8704 12.8387 65.6184 13.6093 66.2304 14.516C66.8651 15.4 67.3184 16.3747 67.5904 17.44H62.2184C61.7651 16.624 61.1417 15.9667 60.3484 15.468C59.5777 14.9693 58.6937 14.72 57.6964 14.72ZM78.6048 18.188C79.2848 18.256 79.9421 18.4147 80.5768 18.664C81.2341 18.9133 81.8121 19.2533 82.3108 19.684C82.8321 20.1147 83.2515 20.636 83.5688 21.248C83.8861 21.8373 84.0448 22.5173 84.0448 23.288C84.0448 24.2627 83.8408 25.1467 83.4328 25.94C83.0248 26.7107 82.4695 27.368 81.7668 27.912C81.0868 28.4333 80.2935 28.83 79.3868 29.102C78.5028 29.3967 77.5621 29.544 76.5648 29.544C75.5901 29.544 74.6495 29.3967 73.7428 29.102C72.8361 28.83 72.0315 28.4333 71.3288 27.912C70.6488 27.368 70.1048 26.7107 69.6968 25.94C69.2888 25.1467 69.0848 24.2627 69.0848 23.288H74.1848C74.1848 24.0587 74.4341 24.58 74.9328 24.852C75.4541 25.124 75.9981 25.26 76.5648 25.26C77.1315 25.26 77.6641 25.1127 78.1628 24.818C78.6841 24.5233 78.9448 24.0813 78.9448 23.492C78.9448 23.0613 78.6955 22.676 78.1968 22.336C77.6981 21.996 77.0635 21.7693 76.2928 21.656C75.4088 21.5427 74.5361 21.3273 73.6748 21.01C72.8361 20.6927 72.0881 20.296 71.4308 19.82C70.7961 19.344 70.2748 18.8 69.8668 18.188C69.4815 17.5533 69.2888 16.8733 69.2888 16.148C69.2888 15.2187 69.4815 14.38 69.8668 13.632C70.2521 12.884 70.7735 12.2493 71.4308 11.728C72.1108 11.2067 72.8928 10.81 73.7768 10.538C74.6608 10.2433 75.5901 10.096 76.5648 10.096C77.5621 10.096 78.4915 10.2433 79.3528 10.538C80.2368 10.81 81.0075 11.218 81.6648 11.762C82.3448 12.2833 82.8775 12.9293 83.2628 13.7C83.6481 14.4707 83.8408 15.3547 83.8408 16.352H78.7408C78.7408 15.9667 78.6728 15.6493 78.5368 15.4C78.4235 15.128 78.2648 14.924 78.0608 14.788C77.8568 14.6293 77.6188 14.5273 77.3468 14.482C77.0975 14.414 76.8368 14.38 76.5648 14.38C75.9981 14.38 75.4881 14.5047 75.0348 14.754C74.6041 14.9807 74.3888 15.4 74.3888 16.012C74.3888 16.284 74.5135 16.5447 74.7628 16.794C75.0121 17.0207 75.3408 17.236 75.7488 17.44C76.1568 17.6213 76.6101 17.78 77.1088 17.916C77.6075 18.0293 78.1061 18.12 78.6048 18.188Z" fill="white"/>
</svg>
