<?xml version="1.0" encoding="utf-8"?>
<!-- Generator: Adobe Illustrator 26.3.1, SVG Export Plug-In . SVG Version: 6.00 Build 0)  -->
<svg version="1.1" id="Layer_1" xmlns="http://www.w3.org/2000/svg" xmlns:xlink="http://www.w3.org/1999/xlink" x="0px" y="0px"
	 viewBox="0 0 6624 980" style="enable-background:new 0 0 6624 980;" xml:space="preserve">
<style type="text/css">
	.st0{fill:url(#SVGID_1_);}
	.st1{fill:#FFFFFF;}
	.st2{fill:url(#SVGID_00000107554179295656364550000015753751576164755372_);}
</style>
<linearGradient id="SVGID_1_" gradientUnits="userSpaceOnUse" x1="3828.4214" y1="870.2695" x2="4264.9019" y2="114.2512" gradientTransform="matrix(1 0 0 -1 0 977.89)">
	<stop  offset="0" style="stop-color:#FF00A0"/>
	<stop  offset="1" style="stop-color:#9600FF"/>
</linearGradient>
<path class="st0" d="M4489,471.5c84.5-64.2,39.3-205.8-52.4-238c-20.2-8.3-41.6-11.9-64.2-11.9h-221.3v536.5c13.1,0,251,0,251,0
	c42.8,0,83.3-15.5,113-44C4581.9,649.9,4574.7,519,4489,471.5z M4258.2,328.6L4258.2,328.6h110.7c28.6,0,52.3,20.2,51.2,50
	c1.2,28.6-22.6,52.4-51.2,51.2h-110.6h-0.1V328.6z M4396.2,651.1h-138V534.5h138c28.6-1.2,52.4,30.9,51.2,59.5
	C4448.6,621.3,4424.8,652.3,4396.2,651.1z M3835.1,221.6H3631v536.6h204.1c148.2,0,268.3-120.1,268.3-268.3
	S3983.2,221.6,3835.1,221.6z M3835.1,651c0,0,0,0-0.1,0h-97V328.6h96.9c0,0,0,0,0.1,0c89.1,0,161.3,72.2,161.3,161.2
	S3924.1,651,3835.1,651z"/>
<path class="st1" d="M3476.1,221.6v536.6h107.1V221.6H3476.1z"/>
<path class="st1" d="M3428.3,552.3c0-115.9-94-209.9-209.9-209.9c-115.9,0-209.9,94-209.9,209.9s94,209.9,209.9,209.9
	c37.3,0,72.4-9.8,102.8-26.9v22.8h107.1V552.3C3428.3,552.4,3428.3,552.4,3428.3,552.3z M3218.4,655.1c-56.8,0-102.8-46-102.8-102.8
	s46-102.8,102.8-102.8c56.8,0,102.8,46,102.8,102.8S3275.2,655.1,3218.4,655.1z"/>
<path class="st1" d="M2750.9,655c-43.3,0-80.4-26.8-95.5-64.7h301.9c2.3-12.3,3.4-25.1,3.4-38c0-115.9-94-209.9-209.9-209.9
	c-115.9,0-209.9,94-209.9,209.9s94,209.9,209.9,209.9c92.3,0,170.7-59.6,198.8-142.3h-121.3C2809.5,641.4,2781.8,655,2750.9,655z
	 M2750.9,449.5c43.3,0,80.4,26.8,95.5,64.7h-191C2670.5,476.3,2707.6,449.5,2750.9,449.5z"/>
<path class="st1" d="M2516.6,342.5c-91.6,0-172.5,59.4-199.9,146.2c-5.9,20.2-9.5,41.6-9.5,63.1v113.7V758h107.1V551.8
	c2.9-70.8,52.9-106.2,102.7-106.2V342.5C2516.9,342.5,2516.7,342.5,2516.6,342.5z"/>
<path class="st1" d="M2282.9,342.5c-91.6,0-172.5,59.4-199.9,146.2c-5.9,20.2-9.5,41.6-9.5,63.1v113.7V758h107.1V551.8
	c2.9-70.8,52.9-106.2,102.7-106.2V342.5C2283.2,342.5,2283,342.5,2282.9,342.5z"/>
<path class="st1" d="M1918.6,552.9c-5.9,141.6-199.9,141.6-204.6,0V439.2v-92.5h-107.1v92.5v113.6c0,21.4,3.6,42.8,9.5,63.1
	c27.4,86.9,108.3,146.3,199.9,146.3c91.6,0,172.5-59.4,199.9-146.2c5.9-20.2,9.5-41.6,9.5-63.1V439.2v-92.5h-107.1V552.9z"/>
<path class="st1" d="M1412,444.4c-45.1-7.2-98.5-15.6-134.1-44.5c-22.6-18.2-13.1-47,10.7-62.8c46.3-30.3,123.3-13.3,138.8,42.1h121
	c0-98.8-104.4-162.8-201.8-161.6c-54.7,0-105.6,13.3-144.8,45.8c-47.4,38.6-71.1,112.1-41.5,166.5c48.7,80.8,166.2,79.6,245.7,112
	c21.4,10.9,34.5,23,34.5,45.8c0,49.5-43.9,70-93.8,70c-47.4,1.2-83-35-87.8-79.6h-118.7c3.6,174.9,232.6,237.7,361.9,133.8
	c36.8-31.4,57-76,57-124.1C1560.2,509.4,1486.7,456.4,1412,444.4z"/>
<linearGradient id="SVGID_00000057860397071821443060000006782969776935150491_" gradientUnits="userSpaceOnUse" x1="203.3478" y1="863.1928" x2="636.6956" y2="112.6121" gradientTransform="matrix(1 0 0 -1 0 977.89)">
	<stop  offset="0" style="stop-color:#FF00A0"/>
	<stop  offset="1" style="stop-color:#9600FF"/>
</linearGradient>
<path style="fill:url(#SVGID_00000057860397071821443060000006782969776935150491_);" d="M420,257.8L653.3,387v-51.8L420,206.3
	c-34.7,19.2-202.4,111.9-233.3,128.9c28.7,15.9,330.1,182.4,513.3,283.6v51.6c-24.9,13.8-280,154.7-280,154.7
	C350.2,786.6,209.7,709,140,670.4V515.7l280,154.7l46.7-25.8L93.3,438.4v257.9L420,876.7c32.2-17.8,302.8-167.3,326.6-180.5V593.1
	L280,335.2L420,257.8z M93.3,283.6v103.2l466.6,257.9l-140,77.4L186.6,592.9v51.8l233.3,128.9c34.7-19.2,202.4-111.9,233.3-128.9
	C624.5,628.8,323.2,462.3,140,361v-51.6c24.9-13.8,280-154.7,280-154.7c69.7,38.6,210.2,116.2,280,154.7v154.7L420,309.4l-46.7,25.8
	l373.3,206.3V283.6L420,103.1C387.7,121,117.2,270.5,93.3,283.6z M420,0L0,232.1v515.7l420,232.1l420-232V232.1L420,0z M793.2,722
	L420,928.3L46.7,722V257.9L420,51.6l373.3,206.3L793.2,722z"/>
<path class="st1" d="M6506.1,515.7c14.7,1.5,28.9,4.9,42.6,10.3c14.2,5.4,26.7,12.7,37.4,22c11.2,9.3,20.3,20.5,27.1,33.8
	c6.9,12.7,10.3,27.4,10.3,44c0,21-4.4,40.1-13.2,57.2c-8.8,16.6-20.8,30.8-36,42.6c-14.7,11.3-31.8,19.8-51.4,25.7
	c-19.1,6.4-39.4,9.5-60.9,9.5c-21,0-41.3-3.2-60.9-9.5c-19.6-5.9-36.9-14.4-52.1-25.7c-14.7-11.7-26.4-25.9-35.2-42.6
	c-8.8-17.1-13.2-36.2-13.2-57.2h110.1c0,16.6,5.4,27.9,16.1,33.8c11.2,5.9,23,8.8,35.2,8.8s23.7-3.2,34.5-9.5
	c11.2-6.4,16.9-15.9,16.9-28.6c0-9.3-5.4-17.6-16.1-25c-10.8-7.3-24.5-12.2-41.1-14.7c-19.1-2.4-37.9-7.1-56.5-13.9
	c-18.1-6.8-34.2-15.4-48.4-25.7c-13.7-10.3-25-22-33.8-35.2c-8.3-13.7-12.5-28.4-12.5-44c0-20.1,4.2-38.2,12.5-54.3
	c8.3-16.1,19.6-29.8,33.8-41.1c14.7-11.3,31.5-19.8,50.6-25.7c19.1-6.4,39.1-9.5,60.2-9.5c21.5,0,41.6,3.2,60.2,9.5
	c19.1,5.9,35.7,14.7,49.9,26.4c14.7,11.3,26.2,25.2,34.5,41.8c8.3,16.6,12.5,35.7,12.5,57.2H6509c0-8.3-1.5-15.2-4.4-20.5
	c-2.4-5.9-5.9-10.3-10.3-13.2c-4.4-3.4-9.5-5.6-15.4-6.6c-5.4-1.5-11-2.2-16.9-2.2c-12.2,0-23.2,2.7-33,8.1
	c-9.3,4.9-13.9,13.9-13.9,27.2c0,5.9,2.7,11.5,8.1,16.9c5.4,4.9,12.5,9.5,21.3,13.9c8.8,3.9,18.6,7.3,29.4,10.3
	C6484.5,512.2,6495.3,514.2,6506.1,515.7z"/>
<path class="st1" d="M6054.8,440.8c-15.2,0-29.6,2.9-43.3,8.8c-13.2,5.9-24.7,13.7-34.5,23.5c-9.8,9.8-17.6,21.5-23.5,35.2
	c-5.9,13.2-8.8,27.4-8.8,42.6c0,15.2,2.9,29.6,8.8,43.3c5.9,13.2,13.7,24.7,23.5,34.5c9.8,9.8,21.3,17.6,34.5,23.5
	c13.7,5.9,28.1,8.8,43.3,8.8c20.5,0,38.9-5.1,55-15.4c16.6-10.3,29.6-23.7,38.9-40.4h118.2c-6.4,22.5-16.1,43.3-29.4,62.4
	c-13.2,18.6-29.1,35-47.7,49.2c-18.6,13.7-39.4,24.5-62.4,32.3c-23,7.8-47.2,11.7-72.6,11.7c-30.3,0-59-5.4-85.9-16.1
	c-26.9-11.3-50.4-26.4-70.5-45.5c-19.6-19.1-35.2-41.3-47-66.8c-11.2-25.4-16.9-52.6-16.9-81.5s5.6-56,16.9-81.5
	c11.7-25.4,27.4-47.7,47-66.8c20.1-19.1,43.6-34,70.5-44.8c26.9-11.3,55.5-16.9,85.9-16.9c25.9,0,50.4,4.2,73.4,12.5
	c23,7.8,43.8,18.8,62.4,33c19.1,13.7,35.2,30.3,48.4,49.9c13.7,19.1,23.5,40.1,29.4,63.1h-116c-9.8-17.6-23.2-31.8-40.4-42.6
	C6095.4,446.2,6076.3,440.8,6054.8,440.8z"/>
<path class="st1" d="M5805.4,550.9c0,28.9-5.9,56-17.6,81.5c-11.2,25.4-26.9,47.7-47,66.8c-19.6,19.1-42.6,34.2-69,45.5
	c-26.4,10.8-54.8,16.1-85.1,16.1c-30.3,0-58.7-5.4-85.1-16.1c-26.4-11.3-49.7-26.4-69.7-45.5c-19.6-19.1-35.2-41.3-47-66.8
	c-11.2-25.4-16.9-52.6-16.9-81.5s5.6-56,16.9-81.5c11.7-25.4,27.4-47.7,47-66.8c20.1-19.1,43.3-34,69.7-44.8
	c26.4-11.3,54.8-16.9,85.1-16.9c30.3,0,58.7,5.6,85.1,16.9c26.4,10.8,49.4,25.7,69,44.8c20.1,19.1,35.7,41.3,47,66.8
	C5799.5,494.9,5805.4,522,5805.4,550.9z M5695.3,550.9c0-15.2-2.9-29.4-8.8-42.6c-5.4-13.7-13-25.4-22.8-35.2
	c-9.8-9.8-21.3-17.6-34.5-23.5c-13.2-5.9-27.4-8.8-42.6-8.8c-15.2,0-29.4,2.9-42.6,8.8c-13.2,5.9-24.7,13.7-34.5,23.5
	c-9.8,9.8-17.6,21.5-23.5,35.2c-5.4,13.2-8.1,27.4-8.1,42.6c0,15.2,2.7,29.6,8.1,43.3c5.9,13.2,13.7,24.7,23.5,34.5
	c9.8,9.8,21.3,17.6,34.5,23.5c13.2,5.9,27.4,8.8,42.6,8.8c15.2,0,29.4-2.9,42.6-8.8c13.2-5.9,24.7-13.7,34.5-23.5
	c9.8-9.8,17.4-21.3,22.8-34.5C5692.4,580.5,5695.3,566.1,5695.3,550.9z"/>
<path class="st1" d="M5346.1,487.3c0,38.8-6.7,74.5-20.1,107.3c-12.9,32.8-31.5,61.1-55.9,85c-24.3,23.8-54.1,42.5-89.4,55.9
	c-34.8,13.4-74.3,20.1-118.5,20.1H4846V219h216.1c42.2,0,80.7,6.7,115.5,20.1c34.8,13.4,64.6,32,89.4,55.9
	c25.3,23.8,44.7,52.2,58.1,85C5339.1,412.8,5346.1,448.5,5346.1,487.3z M5066.6,648.3c22.4,0,43.2-4.2,62.6-12.7
	c19.4-8.4,36.3-19.9,50.7-34.3c14.9-14.9,26.6-32,35-51.4c8.4-19.4,12.7-40.2,12.7-62.6s-4.2-43.2-12.7-62.6
	c-8.4-19.4-20.1-36.3-35-50.7c-14.4-14.9-31.3-26.6-50.7-35c-19.4-8.4-40.2-12.7-62.6-12.7h-101.4v322H5066.6z"/>
</svg>
