<?xml version="1.0" encoding="utf-8"?>
<!-- Generator: Adobe Illustrator 26.3.1, SVG Export Plug-In . SVG Version: 6.00 Build 0)  -->
<svg version="1.1" id="Layer_1" xmlns="http://www.w3.org/2000/svg" xmlns:xlink="http://www.w3.org/1999/xlink" x="0px" y="0px"
	 viewBox="0 0 7798.7 1153.8" style="enable-background:new 0 0 7798.7 1153.8;" xml:space="preserve">
<style type="text/css">
	.st0{fill:url(#SVGID_1_);}
	.st1{fill:url(#SVGID_00000042709646692859217770000017089809527128279739_);}
</style>
<linearGradient id="SVGID_1_" gradientUnits="userSpaceOnUse" x1="4507.709" y1="-9.284" x2="5021.6353" y2="880.8767" gradientTransform="matrix(1 0 0 1 0 136)">
	<stop  offset="0" style="stop-color:#FF00A0"/>
	<stop  offset="1" style="stop-color:#9600FF"/>
</linearGradient>
<path class="st0" d="M5285.5,555.2c99.5-75.6,46.3-242.3-61.7-280.2c-23.8-9.8-49-14-75.6-14h-260.6v631.7c15.4,0,295.5,0,295.5,0
	c50.4,0,98.1-18.3,133-51.8C5394.9,765.2,5386.4,611.1,5285.5,555.2z M5013.7,386.9L5013.7,386.9h130.3c33.7,0,61.6,23.8,60.3,58.9
	c1.4,33.7-26.6,61.7-60.3,60.3h-130.2h-0.1V386.9z M5176.2,766.6h-162.5V629.3h162.5c33.7-1.4,61.7,36.4,60.3,70.1
	C5237.9,731.5,5209.9,768,5176.2,766.6z M4515.6,260.9h-240.3v631.8h240.3c174.5,0,315.9-141.4,315.9-315.9S4690,260.9,4515.6,260.9
	z M4515.6,766.5c0,0,0,0-0.1,0h-114.2V386.9h114.1c0,0,0,0,0.1,0c104.9,0,189.9,85,189.9,189.8S4620.4,766.5,4515.6,766.5z"/>
<path d="M4092.9,260.9v631.8H4219V260.9H4092.9z"/>
<path d="M4036.6,650.3c0-136.5-110.7-247.1-247.1-247.1s-247.1,110.7-247.1,247.1s110.7,247.1,247.1,247.1
	c43.9,0,85.2-11.5,121-31.7v26.8h126.1L4036.6,650.3C4036.6,650.4,4036.6,650.4,4036.6,650.3z M3789.4,771.3
	c-66.9,0-121-54.2-121-121s54.2-121,121-121c66.9,0,121,54.2,121,121S3856.3,771.3,3789.4,771.3z"/>
<path d="M3239,771.2c-51,0-94.7-31.6-112.4-76.2H3482c2.7-14.5,4-29.6,4-44.7c0-136.5-110.7-247.1-247.1-247.1
	s-247.1,110.7-247.1,247.1s110.7,247.1,247.1,247.1c108.7,0,201-70.2,234.1-167.5h-142.8C3308,755.2,3275.4,771.2,3239,771.2z
	 M3239,529.3c51,0,94.7,31.6,112.4,76.2h-224.9C3144.3,560.8,3188,529.3,3239,529.3z"/>
<path d="M2963.1,403.3c-107.9,0-203.1,69.9-235.4,172.1c-6.9,23.8-11.2,49-11.2,74.3v133.9v108.9h126.1V649.7
	c3.4-83.4,62.3-125,120.9-125V403.3C2963.5,403.3,2963.2,403.3,2963.1,403.3z"/>
<path d="M2688,403.3c-107.9,0-203.1,69.9-235.4,172.1c-6.9,23.8-11.2,49-11.2,74.3v133.9v108.9h126.1V649.7
	c3.4-83.4,62.3-125,120.9-125V403.3C2688.3,403.3,2688.1,403.3,2688,403.3z"/>
<path d="M2259,651c-6.9,166.7-235.4,166.7-240.9,0V517.1V408.2H1892v108.9v133.8c0,25.2,4.2,50.4,11.2,74.3
	c32.3,102.3,127.5,172.3,235.4,172.3s203.1-69.9,235.4-172.1c6.9-23.8,11.2-49,11.2-74.3V517.1V408.2H2259L2259,651L2259,651z"/>
<path d="M1662.5,523.3c-53.1-8.5-116-18.4-157.9-52.4c-26.6-21.4-15.4-55.3,12.6-73.9c54.5-35.7,145.2-15.7,163.4,49.6h142.5
	c0-116.3-122.9-191.7-237.6-190.3c-64.4,0-124.3,15.7-170.5,53.9c-55.8,45.4-83.7,132-48.9,196c57.3,95.1,195.7,93.7,289.3,131.9
	c25.2,12.8,40.6,27.1,40.6,53.9c0,58.3-51.7,82.4-110.4,82.4c-55.8,1.4-97.7-41.2-103.4-93.7h-139.8
	c4.2,205.9,273.9,279.9,426.1,157.5c43.3-37,67.1-89.5,67.1-146.1C1837,599.8,1750.5,537.4,1662.5,523.3z"/>
<linearGradient id="SVGID_00000035529885900190052380000011642409813100882837_" gradientUnits="userSpaceOnUse" x1="239.4283" y1="-0.9518" x2="749.6663" y2="882.8065" gradientTransform="matrix(1 0 0 1 0 136)">
	<stop  offset="0" style="stop-color:#FF00A0"/>
	<stop  offset="1" style="stop-color:#9600FF"/>
</linearGradient>
<path style="fill:url(#SVGID_00000035529885900190052380000011642409813100882837_);" d="M494.5,303.5l274.7,152.1v-61L494.5,242.9
	c-40.9,22.6-238.3,131.8-274.7,151.8c33.8,18.7,388.7,214.8,604.4,333.9v60.8c-29.3,16.2-329.7,182.1-329.7,182.1
	c-82.2-45.3-247.6-136.7-329.7-182.1V607.2l329.7,182.1l55-30.4L109.9,516.2v303.7l384.7,212.4c37.9-21,356.5-197,384.5-212.5V698.3
	L329.7,394.7L494.5,303.5z M109.9,333.9v121.5l549.4,303.7l-164.8,91.1L219.7,698.1v61l274.7,151.8
	c40.9-22.6,238.3-131.8,274.7-151.8c-33.8-18.7-388.6-214.8-604.3-334v-60.8c29.3-16.2,329.7-182.1,329.7-182.1
	C576.6,227.6,742,319,824.2,364.3v182.1L494.5,364.3l-55,30.4l439.5,242.9V333.9L494.5,121.4C456.5,142.5,138,318.5,109.9,333.9z
	 M494.5,0L0,273.3v607.2l494.5,273.3L989,880.6V273.3L494.5,0z M933.9,850.1L494.5,1093L55,850.1V303.7L494.5,60.8l439.5,242.9
	L933.9,850.1z"/>
<path d="M7660.5,607.2c17.3,1.8,34,5.8,50.2,12.1c16.7,6.4,31.4,15,44,25.9c13.2,11,23.9,24.1,31.9,39.8c8.1,15,12.1,32.3,12.1,51.8
	c0,24.7-5.2,47.2-15.5,67.3c-10.4,19.5-24.5,36.3-42.4,50.2c-17.3,13.3-37.4,23.3-60.5,30.3c-22.5,7.5-46.4,11.2-71.7,11.2
	c-24.7,0-48.6-3.8-71.7-11.2c-23.1-6.9-43.4-17-61.3-30.3c-17.3-13.8-31.1-30.5-41.4-50.2c-10.4-20.1-15.5-42.6-15.5-67.3h129.6
	c0,19.5,6.4,32.9,19,39.8c13.2,6.9,27.1,10.4,41.4,10.4s27.9-3.8,40.6-11.2c13.2-7.5,19.9-18.7,19.9-33.7c0-11-6.4-20.7-19-29.4
	c-12.7-8.6-28.8-14.4-48.4-17.3c-22.5-2.8-44.6-8.4-66.5-16.4c-21.3-8-40.3-18.1-57-30.3c-16.1-12.1-29.4-25.9-39.8-41.4
	c-9.8-16.1-14.7-33.4-14.7-51.8c0-23.7,4.9-45,14.7-63.9c9.8-19,23.1-35.1,39.8-48.4c17.3-13.3,37.1-23.3,59.6-30.3
	c22.5-7.5,46-11.2,70.9-11.2c25.3,0,49,3.8,70.9,11.2c22.5,6.9,42,17.3,58.8,31.1c17.3,13.3,30.8,29.7,40.6,49.2
	c9.8,19.5,14.7,42,14.7,67.3h-129.8c0-9.8-1.8-17.9-5.2-24.1c-2.8-6.9-6.9-12.1-12.1-15.5c-5.2-4-11.2-6.6-18.1-7.8
	c-6.4-1.8-13-2.6-19.9-2.6c-14.4,0-27.3,3.2-38.9,9.5c-11,5.8-16.4,16.4-16.4,32c0,6.9,3.2,13.5,9.5,19.9
	c6.4,5.8,14.7,11.2,25.1,16.4c10.4,4.6,21.9,8.6,34.6,12.1C7635.1,603.1,7647.8,605.4,7660.5,607.2z"/>
<path d="M7129.1,519c-17.9,0-34.9,3.4-51,10.4c-15.5,6.9-29.1,16.1-40.6,27.7c-11.5,11.5-20.7,25.3-27.7,41.4
	c-6.9,15.5-10.4,32.3-10.4,50.2c0,17.9,3.4,34.9,10.4,51c6.9,15.5,16.1,29.1,27.7,40.6s25.1,20.7,40.6,27.7
	c16.1,6.9,33.1,10.4,51,10.4c24.1,0,45.8-6,64.8-18.1c19.5-12.1,34.9-27.9,45.8-47.6h139.2c-7.5,26.5-19,51-34.6,73.5
	c-15.5,21.9-34.3,41.2-56.2,57.9c-21.9,16.1-46.4,28.8-73.5,38s-55.6,13.8-85.5,13.8c-35.7,0-69.5-6.4-101.1-19
	c-31.7-13.3-59.3-31.1-83-53.6c-23.1-22.5-41.4-48.6-55.3-78.7c-13.2-29.9-19.9-61.9-19.9-96s6.6-65.9,19.9-96
	c13.8-29.9,32.3-56.2,55.3-78.7c23.7-22.5,51.3-40,83-52.7c31.7-13.3,65.3-19.9,101.1-19.9c30.5,0,59.3,4.9,86.4,14.7
	c27.1,9.2,51.6,22.1,73.5,38.9c22.5,16.1,41.4,35.7,57,58.8c16.1,22.5,27.7,47.2,34.6,74.3H7244c-11.5-20.7-27.3-37.4-47.6-50.2
	C7176.9,525.4,7154.4,519,7129.1,519z"/>
<path d="M6835.5,648.6c0,34-6.9,65.9-20.7,96c-13.2,29.9-31.7,56.2-55.3,78.7c-23.1,22.5-50.2,40.3-81.2,53.6
	c-31.1,12.7-64.5,19-100.2,19c-35.7,0-69.1-6.4-100.2-19c-31.1-13.3-58.5-31.1-82.1-53.6c-23.1-22.5-41.4-48.6-55.3-78.7
	c-13.2-29.9-19.9-61.9-19.9-96s6.6-65.9,19.9-96c13.8-29.9,32.3-56.2,55.3-78.7c23.7-22.5,51-40,82.1-52.7
	c31.1-13.3,64.5-19.9,100.2-19.9s69.1,6.6,100.2,19.9c31.1,12.7,58.2,30.3,81.2,52.7c23.7,22.5,42,48.6,55.3,78.7
	C6828.5,582.7,6835.5,614.6,6835.5,648.6z M6705.8,648.6c0-17.9-3.4-34.6-10.4-50.2c-6.4-16.1-15.3-29.9-26.8-41.4
	c-11.5-11.5-25.1-20.7-40.6-27.7c-15.5-6.9-32.3-10.4-50.2-10.4c-17.9,0-34.6,3.4-50.2,10.4s-29.1,16.1-40.6,27.7
	s-20.7,25.3-27.7,41.4c-6.4,15.5-9.5,32.3-9.5,50.2s3.2,34.9,9.5,51c6.9,15.5,16.1,29.1,27.7,40.6s25.1,20.7,40.6,27.7
	s32.3,10.4,50.2,10.4c17.9,0,34.6-3.4,50.2-10.4c15.5-6.9,29.1-16.1,40.6-27.7s20.5-25.1,26.8-40.6
	C6702.4,683.5,6705.8,666.5,6705.8,648.6z"/>
<path d="M6294.7,573.8c0,45.7-7.9,87.7-23.7,126.3c-15.2,38.6-37.1,71.9-65.8,100.1c-28.6,28-63.7,50-105.3,65.8
	c-41,15.8-87.5,23.7-139.5,23.7h-254.6V257.9h254.4c49.7,0,95,7.9,136,23.7c41,15.8,76.1,37.7,105.3,65.8
	c29.8,28,52.6,61.5,68.4,100.1C6286.4,486,6294.7,528.1,6294.7,573.8z M5965.6,763.3c26.4,0,50.9-4.9,73.7-15
	c22.8-9.9,42.7-23.4,59.7-40.4c17.5-17.5,31.3-37.7,41.2-60.5s15-47.3,15-73.7c0-26.4-4.9-50.9-15-73.7
	c-9.9-22.8-23.7-42.7-41.2-59.7c-17-17.5-36.9-31.3-59.7-41.2c-22.8-9.9-47.3-15-73.7-15h-119.4v379.1L5965.6,763.3L5965.6,763.3z"
	/>
</svg>
