<?xml version="1.0" encoding="UTF-8" standalone="no"?>
<!DOCTYPE svg PUBLIC "-//W3C//DTD SVG 1.1//EN" "http://www.w3.org/Graphics/SVG/1.1/DTD/svg11.dtd">
<svg width="100%" height="100%" viewBox="0 0 2100 1154" version="1.1" xmlns="http://www.w3.org/2000/svg" xmlns:xlink="http://www.w3.org/1999/xlink" xml:space="preserve" xmlns:serif="http://www.serif.com/" style="fill-rule:evenodd;clip-rule:evenodd;stroke-linejoin:round;stroke-miterlimit:2;">
    <g transform="matrix(1,0,0,1,-5702.25,0)">
        <path d="M7660.5,607.2C7677.8,609 7694.5,613 7710.7,619.3C7727.4,625.7 7742.1,634.3 7754.7,645.2C7767.9,656.2 7778.6,669.3 7786.6,685C7794.7,700 7798.7,717.3 7798.7,736.8C7798.7,761.5 7793.5,784 7783.2,804.1C7772.8,823.6 7758.7,840.4 7740.8,854.3C7723.5,867.6 7703.4,877.6 7680.3,884.6C7657.8,892.1 7633.9,895.8 7608.6,895.8C7583.9,895.8 7560,892 7536.9,884.6C7513.8,877.7 7493.5,867.6 7475.6,854.3C7458.3,840.5 7444.5,823.8 7434.2,804.1C7423.8,784 7418.7,761.5 7418.7,736.8L7548.3,736.8C7548.3,756.3 7554.7,769.7 7567.3,776.6C7580.5,783.5 7594.4,787 7608.7,787C7623,787 7636.6,783.2 7649.3,775.8C7662.5,768.3 7669.2,757.1 7669.2,742.1C7669.2,731.1 7662.8,721.4 7650.2,712.7C7637.5,704.1 7621.4,698.3 7601.8,695.4C7579.3,692.6 7557.2,687 7535.3,679C7514,671 7495,660.9 7478.3,648.7C7462.2,636.6 7448.9,622.8 7438.5,607.3C7428.7,591.2 7423.8,573.9 7423.8,555.5C7423.8,531.8 7428.7,510.5 7438.5,491.6C7448.3,472.6 7461.6,456.5 7478.3,443.2C7495.6,429.9 7515.4,419.9 7537.9,412.9C7560.4,405.4 7583.9,401.7 7608.8,401.7C7634.1,401.7 7657.8,405.5 7679.7,412.9C7702.2,419.8 7721.7,430.2 7738.5,444C7755.8,457.3 7769.3,473.7 7779.1,493.2C7788.9,512.7 7793.8,535.2 7793.8,560.5L7664,560.5C7664,550.7 7662.2,542.6 7658.8,536.4C7656,529.5 7651.9,524.3 7646.7,520.9C7641.5,516.9 7635.5,514.3 7628.6,513.1C7622.2,511.3 7615.6,510.5 7608.7,510.5C7594.3,510.5 7581.4,513.7 7569.8,520C7558.8,525.8 7553.4,536.4 7553.4,552C7553.4,558.9 7556.6,565.5 7562.9,571.9C7569.3,577.7 7577.6,583.1 7588,588.3C7598.4,592.9 7609.9,596.9 7622.6,600.4C7635.1,603.1 7647.8,605.4 7660.5,607.2Z" style="fill-rule:nonzero;"/>
    </g>
    <g transform="matrix(1,0,0,1,-5702.25,0)">
        <path d="M7129.1,519C7111.2,519 7094.2,522.4 7078.1,529.4C7062.6,536.3 7049,545.5 7037.5,557.1C7026,568.6 7016.8,582.4 7009.8,598.5C7002.9,614 6999.4,630.8 6999.4,648.7C6999.4,666.6 7002.8,683.6 7009.8,699.7C7016.7,715.2 7025.9,728.8 7037.5,740.3C7049.1,751.8 7062.6,761 7078.1,768C7094.2,774.9 7111.2,778.4 7129.1,778.4C7153.2,778.4 7174.9,772.4 7193.9,760.3C7213.4,748.2 7228.8,732.4 7239.7,712.7L7378.9,712.7C7371.4,739.2 7359.9,763.7 7344.3,786.2C7328.8,808.1 7310,827.4 7288.1,844.1C7266.2,860.2 7241.7,872.9 7214.6,882.1C7187.5,891.3 7159,895.9 7129.1,895.9C7093.4,895.9 7059.6,889.5 7028,876.9C6996.3,863.6 6968.7,845.8 6945,823.3C6921.9,800.8 6903.6,774.7 6889.7,744.6C6876.5,714.7 6869.8,682.7 6869.8,648.6C6869.8,614.5 6876.4,582.7 6889.7,552.6C6903.5,522.7 6922,496.4 6945,473.9C6968.7,451.4 6996.3,433.9 7028,421.2C7059.7,407.9 7093.3,401.3 7129.1,401.3C7159.6,401.3 7188.4,406.2 7215.5,416C7242.6,425.2 7267.1,438.1 7289,454.9C7311.5,471 7330.4,490.6 7346,513.7C7362.1,536.2 7373.7,560.9 7380.6,588L7244,588C7232.5,567.3 7216.7,550.6 7196.4,537.8C7176.9,525.4 7154.4,519 7129.1,519Z" style="fill-rule:nonzero;"/>
    </g>
    <g transform="matrix(1,0,0,1,-5702.25,0)">
        <path d="M6835.5,648.6C6835.5,682.6 6828.6,714.5 6814.8,744.6C6801.6,774.5 6783.1,800.8 6759.5,823.3C6736.4,845.8 6709.3,863.6 6678.3,876.9C6647.2,889.6 6613.8,895.9 6578.1,895.9C6542.4,895.9 6509,889.5 6477.9,876.9C6446.8,863.6 6419.4,845.8 6395.8,823.3C6372.7,800.8 6354.4,774.7 6340.5,744.6C6327.3,714.7 6320.6,682.7 6320.6,648.6C6320.6,614.5 6327.2,582.7 6340.5,552.6C6354.3,522.7 6372.8,496.4 6395.8,473.9C6419.5,451.4 6446.8,433.9 6477.9,421.2C6509,407.9 6542.4,401.3 6578.1,401.3C6613.8,401.3 6647.2,407.9 6678.3,421.2C6709.4,433.9 6736.5,451.5 6759.5,473.9C6783.2,496.4 6801.5,522.5 6814.8,552.6C6828.5,582.7 6835.5,614.6 6835.5,648.6ZM6705.8,648.6C6705.8,630.7 6702.4,614 6695.4,598.4C6689,582.3 6680.1,568.5 6668.6,557C6657.1,545.5 6643.5,536.3 6628,529.3C6612.5,522.4 6595.7,518.9 6577.8,518.9C6559.9,518.9 6543.2,522.3 6527.6,529.3C6512,536.3 6498.5,545.4 6487,557C6475.5,568.6 6466.3,582.3 6459.3,598.4C6452.9,613.9 6449.8,630.7 6449.8,648.6C6449.8,666.5 6453,683.5 6459.3,699.6C6466.2,715.1 6475.4,728.7 6487,740.2C6498.6,751.7 6512.1,760.9 6527.6,767.9C6543.1,774.9 6559.9,778.3 6577.8,778.3C6595.7,778.3 6612.4,774.9 6628,767.9C6643.5,761 6657.1,751.8 6668.6,740.2C6680.1,728.6 6689.1,715.1 6695.4,699.6C6702.4,683.5 6705.8,666.5 6705.8,648.6Z" style="fill-rule:nonzero;"/>
    </g>
    <g transform="matrix(1,0,0,1,-5702.25,0)">
        <path d="M6294.7,573.8C6294.7,619.5 6286.8,661.5 6271,700.1C6255.8,738.7 6233.9,772 6205.2,800.2C6176.6,828.2 6141.5,850.2 6099.9,866C6058.9,881.8 6012.4,889.7 5960.4,889.7L5705.8,889.7L5705.8,257.9L5960.2,257.9C6009.9,257.9 6055.2,265.8 6096.2,281.6C6137.2,297.4 6172.3,319.3 6201.5,347.4C6231.3,375.4 6254.1,408.9 6269.9,447.5C6286.4,486 6294.7,528.1 6294.7,573.8ZM5965.6,763.3C5992,763.3 6016.5,758.4 6039.3,748.3C6062.1,738.4 6082,724.9 6099,707.9C6116.5,690.4 6130.3,670.2 6140.2,647.4C6150.1,624.6 6155.2,600.1 6155.2,573.7C6155.2,547.3 6150.3,522.8 6140.2,500C6130.3,477.2 6116.5,457.3 6099,440.3C6082,422.8 6062.1,409 6039.3,399.1C6016.5,389.2 5992,384.1 5965.6,384.1L5846.2,384.1L5846.2,763.2L5965.6,763.3Z" style="fill-rule:nonzero;"/>
    </g>
</svg>
