<?xml version="1.0" encoding="UTF-8"?>
<svg id="SurrealDB_World" xmlns="http://www.w3.org/2000/svg" xmlns:xlink="http://www.w3.org/1999/xlink" version="1.1" viewBox="0 0 5272.03 544.68">
  <!-- Generator: Adobe Illustrator 29.4.0, SVG Export Plug-In . SVG Version: 2.1.0 Build 152)  -->
  <defs>
    <style>
      .st0 {
        fill: url(#linear-gradient);
      }
    </style>
    <linearGradient id="linear-gradient" x1="2688.22" y1="652.7" x2="3124.71" y2="-103.32" gradientTransform="translate(0 542.74) scale(1 -1)" gradientUnits="userSpaceOnUse">
      <stop offset="0" stop-color="#ff00a0"/>
      <stop offset="1" stop-color="#9600ff"/>
    </linearGradient>
  </defs>
  <path id="DB" class="st0" d="M3348.8,253.92c84.5-64.2,39.3-205.8-52.4-238-20.2-8.3-41.6-11.9-64.2-11.9h-221.3v536.5h251c42.8,0,83.3-15.5,113-44,66.8-64.2,59.6-195.1-26.1-242.6ZM3118,111.02h110.7c28.6,0,52.3,20.2,51.2,50,1.2,28.6-22.6,52.4-51.2,51.2h-110.7v-101.2ZM3256,433.52h-138v-116.6h138c28.6-1.2,52.4,30.9,51.2,59.5,1.2,27.3-22.6,58.3-51.2,57.1ZM2694.9,4.02h-204.1v536.6h204.1c148.2,0,268.3-120.1,268.3-268.3S2843,4.02,2694.9,4.02ZM2694.9,433.42h-97.1V111.02h97c89.1,0,161.3,72.2,161.3,161.2s-72.2,161.2-161.2,161.2Z"/>
  <path id="l" d="M2335.9,4.02v536.6h107.1V4.02h-107.1Z"/>
  <path id="a" d="M2288.1,334.72c0-115.9-94-209.9-209.9-209.9s-209.9,94-209.9,209.9,94,209.9,209.9,209.9c37.3,0,72.4-9.8,102.8-26.9v22.8h107.1v-205.8q0,.1,0,0ZM2078.2,437.52c-56.8,0-102.8-46-102.8-102.8s46-102.8,102.8-102.8,102.8,46,102.8,102.8-46,102.8-102.8,102.8Z"/>
  <path id="e" d="M1610.7,437.42c-43.3,0-80.4-26.8-95.5-64.7h301.9c2.3-12.3,3.4-25.1,3.4-38,0-115.9-94-209.9-209.9-209.9s-209.9,94-209.9,209.9,94,209.9,209.9,209.9c92.3,0,170.7-59.6,198.8-142.3h-121.3c-18.8,21.5-46.5,35.1-77.4,35.1ZM1610.7,231.92c43.3,0,80.4,26.8,95.5,64.7h-191c15.1-37.9,52.2-64.7,95.5-64.7Z"/>
  <path id="r" d="M1376.4,124.92c-91.6,0-172.5,59.4-199.9,146.2-5.9,20.2-9.5,41.6-9.5,63.1v206.2h107.1v-206.2c2.9-70.8,52.9-106.2,102.7-106.2v-103.1h-.4Z"/>
  <path id="r1" data-name="r" d="M1142.7,124.92c-91.6,0-172.5,59.4-199.9,146.2-5.9,20.2-9.5,41.6-9.5,63.1v206.2h107.1v-206.2c2.9-70.8,52.9-106.2,102.7-106.2v-103.1h-.4Z"/>
  <path id="u" d="M778.4,335.32c-5.9,141.6-199.9,141.6-204.6,0v-206.2h-107.1v206.1c0,21.4,3.6,42.8,9.5,63.1,27.4,86.9,108.3,146.3,199.9,146.3s172.5-59.4,199.9-146.2c5.9-20.2,9.5-41.6,9.5-63.1v-206.2h-107.1v206.2h0Z"/>
  <path id="S" d="M271.8,226.82c-45.1-7.2-98.5-15.6-134.1-44.5-22.6-18.2-13.1-47,10.7-62.8,46.3-30.3,123.3-13.3,138.8,42.1h121C408.2,62.82,303.8-1.18,206.4.02,151.7.02,100.8,13.32,61.6,45.82,14.2,84.42-9.5,157.92,20.1,212.32c48.7,80.8,166.2,79.6,245.7,112,21.4,10.9,34.5,23,34.5,45.8,0,49.5-43.9,70-93.8,70-47.4,1.2-83-35-87.8-79.6H0c3.6,174.9,232.6,237.7,361.9,133.8,36.8-31.4,57-76,57-124.1,1.1-78.4-72.4-131.4-147.1-143.4Z"/>
  <path d="M4481.51,540.37v.1s107.1,0,107.1,0v-22.9c30.4,17.1,65.5,26.9,102.8,26.9,115.9,0,209.9-94,209.9-209.9,0-115.9-94-209.9-209.9-209.9-37.35,0-72.41,9.77-102.8,26.88V3.87s-107.1,0-107.1,0v330.7s0,205.8,0,205.8h0ZM4588.61,334.57c0-56.8,46-102.8,102.8-102.8s102.8,46,102.8,102.8-46,102.8-102.8,102.8-102.8-46-102.8-102.8Z"/>
  <path id="a1" data-name="a" d="M4433.71,334.67c0-115.9-94-209.9-209.9-209.9s-209.9,94-209.9,209.9,94,209.9,209.9,209.9c37.3,0,72.4-9.8,102.8-26.9v22.8h107.1v-205.8q0,.1,0,0ZM4223.73,437.47c-56.8,0-102.8-46-102.8-102.8s46-102.8,102.8-102.8,102.8,46,102.8,102.8-46,102.8-102.8,102.8Z"/>
  <polygon points="3990.01 433.52 3758.58 433.52 3758.58 4.02 3651.48 4.02 3651.48 540.62 3758.58 540.62 3758.58 540.62 3990.01 540.62 3990.01 433.52"/>
  <path d="M5154.6,299.44c14.68,1.47,28.99,4.9,42.93,10.27,13.95,5.39,26.42,12.73,37.43,22.02,11.01,9.3,19.93,20.44,26.79,33.39,6.84,12.97,10.28,27.77,10.28,44.4,0,21.04-4.41,40-13.21,56.88-8.81,16.88-20.67,31.08-35.59,42.57-14.93,11.5-32.05,20.31-51.37,26.42-19.33,6.11-39.76,9.17-61.28,9.17s-41.35-3.06-60.92-9.17c-19.58-6.11-36.82-14.92-51.74-26.42-14.93-11.49-26.79-25.69-35.59-42.57-8.81-16.88-13.21-35.84-13.21-56.88h110.09c0,16.64,5.5,27.89,16.51,33.76s22.62,8.81,34.86,8.81,23.85-3.18,34.86-9.54c11.01-6.35,16.51-15.89,16.51-28.62,0-9.29-5.39-17.61-16.15-24.95-10.77-7.34-24.47-12.22-41.1-14.68-19.08-2.44-37.8-7.09-56.15-13.94-18.35-6.85-34.49-15.41-48.44-25.69-13.94-10.28-25.2-22.13-33.76-35.59-8.57-13.45-12.84-28-12.84-43.67,0-20.06,4.15-38.16,12.48-54.31,8.31-16.15,19.69-29.84,34.13-41.1,14.42-11.25,31.19-19.93,50.27-26.05,19.08-6.11,39.14-9.17,60.18-9.17s41.71,3.06,60.55,9.17c18.83,6.12,35.47,14.93,49.91,26.42,14.43,11.5,25.8,25.57,34.13,42.2,8.31,16.64,12.48,35.72,12.48,57.25h-110.09c0-8.31-1.35-15.29-4.04-20.92-2.69-5.62-6.24-10.02-10.64-13.21-4.4-3.18-9.42-5.38-15.04-6.61-5.63-1.22-11.38-1.83-17.25-1.83-12.24,0-23.12,2.57-32.66,7.71-9.54,5.14-14.31,14.31-14.31,27.52,0,5.87,2.68,11.38,8.07,16.51,5.38,5.14,12.48,9.79,21.28,13.94,8.81,4.16,18.59,7.59,29.36,10.27,10.76,2.69,21.52,4.77,32.29,6.24Z"/>
</svg>