<svg width="156" height="36" viewBox="0 0 156 36" fill="none" xmlns="http://www.w3.org/2000/svg">
<path d="M13.09 14.652C13.9287 14.8107 14.7333 15.0713 15.504 15.434C16.2973 15.774 17 16.2273 17.612 16.794C18.224 17.3607 18.7113 18.0293 19.074 18.8C19.4593 19.548 19.652 20.4093 19.652 21.384C19.652 22.5627 19.4253 23.6507 18.972 24.648C18.5413 25.6453 17.918 26.5067 17.102 27.232C16.286 27.9573 15.2887 28.524 14.11 28.932C12.954 29.34 11.6507 29.544 10.2 29.544C8.88533 29.544 7.66133 29.3173 6.528 28.864C5.39467 28.388 4.40867 27.7533 3.57 26.96C2.754 26.1667 2.108 25.2487 1.632 24.206C1.17867 23.1633 0.952 22.064 0.952 20.908H6.256C6.36933 21.9733 6.77733 22.8687 7.48 23.594C8.20533 24.2967 9.112 24.648 10.2 24.648C11.4693 24.648 12.478 24.3647 13.226 23.798C13.9967 23.2313 14.382 22.4267 14.382 21.384C14.382 20.8627 14.246 20.4433 13.974 20.126C13.7247 19.786 13.3507 19.4913 12.852 19.242C12.3533 18.9927 11.7413 18.7773 11.016 18.596C10.3133 18.392 9.50867 18.188 8.602 17.984C7.60467 17.7573 6.664 17.4627 5.78 17.1C4.896 16.7373 4.114 16.2953 3.434 15.774C2.77667 15.2527 2.25533 14.652 1.87 13.972C1.48467 13.292 1.292 12.51 1.292 11.626C1.292 10.4927 1.496 9.46133 1.904 8.532C2.33467 7.60267 2.93533 6.798 3.706 6.118C4.47667 5.438 5.406 4.91667 6.494 4.554C7.60467 4.16866 8.84 3.976 10.2 3.976C11.424 3.976 12.58 4.16866 13.668 4.554C14.756 4.93933 15.708 5.472 16.524 6.152C17.3627 6.832 18.02 7.63667 18.496 8.566C18.972 9.47267 19.21 10.47 19.21 11.558H13.804C13.5773 10.7873 13.124 10.1527 12.444 9.654C11.7867 9.13267 11.0387 8.872 10.2 8.872C9.18 8.872 8.31867 9.12133 7.616 9.62C6.91333 10.096 6.562 10.6967 6.562 11.422C6.562 11.8527 6.74333 12.238 7.106 12.578C7.49133 12.918 7.99 13.224 8.602 13.496C9.214 13.7453 9.90533 13.972 10.676 14.176C11.4693 14.3573 12.274 14.516 13.09 14.652ZM32.3151 10.096C33.7205 10.096 35.0351 10.3567 36.2591 10.878C37.4831 11.3767 38.5485 12.068 39.4551 12.952C40.3618 13.836 41.0758 14.8673 41.5971 16.046C42.1411 17.2247 42.4131 18.4827 42.4131 19.82C42.4131 21.1573 42.1411 22.4153 41.5971 23.594C41.0758 24.7727 40.3618 25.804 39.4551 26.688C38.5485 27.572 37.4831 28.2747 36.2591 28.796C35.0351 29.2947 33.7205 29.544 32.3151 29.544C31.3405 29.544 30.4225 29.3627 29.5611 29C28.7225 28.6373 27.9745 28.1387 27.3171 27.504V35.12H22.2171V19.82C22.2171 18.4827 22.4778 17.2247 22.9991 16.046C23.5431 14.8673 24.2685 13.836 25.1751 12.952C26.0818 12.068 27.1471 11.3767 28.3711 10.878C29.6178 10.3567 30.9325 10.096 32.3151 10.096ZM32.2131 24.92C32.9158 24.92 33.5731 24.784 34.1851 24.512C34.8198 24.24 35.3638 23.8773 35.8171 23.424C36.2705 22.9707 36.6331 22.438 36.9051 21.826C37.1771 21.1913 37.3131 20.5227 37.3131 19.82C37.3131 19.1173 37.1771 18.46 36.9051 17.848C36.6331 17.2133 36.2705 16.6693 35.8171 16.216C35.3638 15.7627 34.8198 15.4 34.1851 15.128C33.5731 14.856 32.9158 14.72 32.2131 14.72C31.5105 14.72 30.8418 14.856 30.2071 15.128C29.5951 15.4 29.0625 15.7627 28.6091 16.216C28.1558 16.6693 27.7931 17.2133 27.5211 17.848C27.2491 18.46 27.1131 19.1173 27.1131 19.82C27.1131 20.5227 27.2491 21.1913 27.5211 21.826C27.7931 22.438 28.1558 22.9707 28.6091 23.424C29.0625 23.8773 29.5951 24.24 30.2071 24.512C30.8418 24.784 31.5105 24.92 32.2131 24.92ZM53.9777 10.096C55.383 10.096 56.709 10.3567 57.9557 10.878C59.2023 11.3767 60.279 12.068 61.1857 12.952C62.115 13.836 62.8403 14.8673 63.3617 16.046C63.9057 17.2247 64.1777 18.4827 64.1777 19.82C64.1777 20.1373 64.155 20.4433 64.1097 20.738C64.087 21.01 64.053 21.2933 64.0077 21.588H49.1837C49.569 22.5627 50.181 23.3673 51.0197 24.002C51.881 24.614 52.867 24.92 53.9777 24.92C54.7937 24.92 55.553 24.7387 56.2557 24.376C56.9583 24.0133 57.5363 23.5373 57.9897 22.948H63.6337C63.2937 23.9 62.8063 24.784 62.1717 25.6C61.5597 26.416 60.823 27.1187 59.9617 27.708C59.123 28.2747 58.1937 28.7167 57.1737 29.034C56.1763 29.374 55.111 29.544 53.9777 29.544C52.5723 29.544 51.2463 29.2947 49.9997 28.796C48.753 28.2747 47.665 27.572 46.7357 26.688C45.829 25.804 45.1037 24.7727 44.5597 23.594C44.0383 22.4153 43.7777 21.1573 43.7777 19.82C43.7777 18.4827 44.0383 17.2247 44.5597 16.046C45.1037 14.8673 45.829 13.836 46.7357 12.952C47.665 12.068 48.753 11.3767 49.9997 10.878C51.2463 10.3567 52.5723 10.096 53.9777 10.096ZM58.7717 18.052C58.3863 17.0773 57.763 16.284 56.9017 15.672C56.0403 15.0373 55.0657 14.72 53.9777 14.72C52.867 14.72 51.881 15.0373 51.0197 15.672C50.181 16.284 49.569 17.0773 49.1837 18.052H58.7717ZM75.7257 14.72C75.023 14.72 74.3544 14.856 73.7197 15.128C73.1077 15.4 72.575 15.7627 72.1217 16.216C71.6684 16.6693 71.3057 17.2133 71.0337 17.848C70.7617 18.46 70.6257 19.1173 70.6257 19.82C70.6257 20.5227 70.7617 21.1913 71.0337 21.826C71.3057 22.438 71.6684 22.9707 72.1217 23.424C72.575 23.8773 73.1077 24.24 73.7197 24.512C74.3544 24.784 75.023 24.92 75.7257 24.92C76.6777 24.92 77.5277 24.682 78.2757 24.206C79.0464 23.73 79.647 23.1067 80.0777 22.336H85.5517C85.257 23.3787 84.8037 24.342 84.1917 25.226C83.5797 26.0873 82.843 26.8467 81.9817 27.504C81.1204 28.1387 80.157 28.6373 79.0917 29C78.0264 29.3627 76.9044 29.544 75.7257 29.544C74.3204 29.544 72.9944 29.2947 71.7477 28.796C70.501 28.2747 69.413 27.572 68.4837 26.688C67.577 25.804 66.8517 24.7727 66.3077 23.594C65.7864 22.4153 65.5257 21.1573 65.5257 19.82C65.5257 18.4827 65.7864 17.2247 66.3077 16.046C66.8517 14.8673 67.577 13.836 68.4837 12.952C69.413 12.068 70.501 11.3767 71.7477 10.878C72.9944 10.3567 74.3204 10.096 75.7257 10.096C76.927 10.096 78.0604 10.2887 79.1257 10.674C80.191 11.0367 81.1544 11.5467 82.0157 12.204C82.8997 12.8387 83.6477 13.6093 84.2597 14.516C84.8944 15.4 85.3477 16.3747 85.6197 17.44H80.2477C79.7944 16.624 79.171 15.9667 78.3777 15.468C77.607 14.9693 76.723 14.72 75.7257 14.72ZM92.8601 4.52V10.64H97.9601V14.992H92.8601V19.82C92.8601 20.5227 92.9961 21.1913 93.2681 21.826C93.5401 22.438 93.9028 22.9707 94.3561 23.424C94.8094 23.8773 95.3421 24.24 95.9541 24.512C96.5888 24.784 97.2574 24.92 97.9601 24.92V29.544H97.2801C95.8748 29.544 94.5828 29.2947 93.4041 28.796C92.2481 28.2747 91.2508 27.572 90.4121 26.688C89.5734 25.804 88.9161 24.7727 88.4401 23.594C87.9868 22.4153 87.7601 21.1573 87.7601 19.82V4.52H92.8601ZM101.007 19.82C101.007 18.4827 101.233 17.2247 101.687 16.046C102.163 14.8673 102.82 13.836 103.659 12.952C104.497 12.068 105.495 11.3767 106.651 10.878C107.829 10.3567 109.121 10.096 110.527 10.096H111.207V14.72C110.504 14.72 109.835 14.856 109.201 15.128C108.589 15.4 108.056 15.7627 107.603 16.216C107.149 16.6693 106.787 17.2133 106.515 17.848C106.243 18.46 106.107 19.1173 106.107 19.82V29H101.007V19.82ZM132.673 19.82C132.673 21.1573 132.401 22.4153 131.857 23.594C131.335 24.7727 130.61 25.804 129.681 26.688C128.774 27.572 127.709 28.2747 126.485 28.796C125.261 29.2947 123.946 29.544 122.541 29.544C121.135 29.544 119.821 29.2947 118.597 28.796C117.373 28.2747 116.296 27.572 115.367 26.688C114.46 25.804 113.735 24.7727 113.191 23.594C112.669 22.4153 112.409 21.1573 112.409 19.82C112.409 18.4827 112.669 17.2247 113.191 16.046C113.735 14.8673 114.46 13.836 115.367 12.952C116.296 12.068 117.373 11.3767 118.597 10.878C119.821 10.3567 121.135 10.096 122.541 10.096C123.946 10.096 125.261 10.3567 126.485 10.878C127.709 11.3767 128.774 12.068 129.681 12.952C130.61 13.836 131.335 14.8673 131.857 16.046C132.401 17.2247 132.673 18.4827 132.673 19.82ZM127.573 19.82C127.573 19.1173 127.437 18.46 127.165 17.848C126.915 17.2133 126.564 16.6693 126.111 16.216C125.657 15.7627 125.125 15.4 124.513 15.128C123.901 14.856 123.243 14.72 122.541 14.72C121.838 14.72 121.181 14.856 120.569 15.128C119.957 15.4 119.424 15.7627 118.971 16.216C118.517 16.6693 118.155 17.2133 117.883 17.848C117.633 18.46 117.509 19.1173 117.509 19.82C117.509 20.5227 117.633 21.1913 117.883 21.826C118.155 22.438 118.517 22.9707 118.971 23.424C119.424 23.8773 119.957 24.24 120.569 24.512C121.181 24.784 121.838 24.92 122.541 24.92C123.243 24.92 123.901 24.784 124.513 24.512C125.125 24.24 125.657 23.8773 126.111 23.424C126.564 22.9707 126.915 22.438 127.165 21.826C127.437 21.1913 127.573 20.5227 127.573 19.82ZM134.874 19.82C134.874 18.4827 135.1 17.2247 135.554 16.046C136.03 14.8673 136.687 13.836 137.526 12.952C138.364 12.068 139.362 11.3767 140.518 10.878C141.696 10.3567 142.988 10.096 144.394 10.096C145.799 10.096 147.08 10.3567 148.236 10.878C149.414 11.3767 150.423 12.068 151.262 12.952C152.1 13.836 152.746 14.8673 153.2 16.046C153.676 17.2247 153.914 18.4827 153.914 19.82V29H148.814V19.82C148.814 19.1173 148.712 18.46 148.508 17.848C148.326 17.2133 148.043 16.6693 147.658 16.216C147.295 15.7627 146.83 15.4 146.264 15.128C145.72 14.856 145.096 14.72 144.394 14.72C143.691 14.72 143.056 14.856 142.49 15.128C141.946 15.4 141.481 15.7627 141.096 16.216C140.733 16.6693 140.45 17.2133 140.246 17.848C140.064 18.46 139.974 19.1173 139.974 19.82V29H134.874V19.82Z" fill="black"/>
</svg>
